<?xml version="1.0" standalone="no"?>
<!DOCTYPE svg PUBLIC "-//W3C//DTD SVG 20010904//EN"
 "http://www.w3.org/TR/2001/REC-SVG-20010904/DTD/svg10.dtd">
<svg version="1.0" xmlns="http://www.w3.org/2000/svg"
 width="750.000000pt" height="656.000000pt" viewBox="0 0 750.000000 656.000000"
 preserveAspectRatio="xMidYMid meet">
<metadata>
Created by potrace 1.16, written by Peter Selinger 2001-2019
</metadata>
<g transform="translate(0.000000,656.000000) scale(0.100000,-0.100000)"
fill="#FFFFFF"  stroke-width="2%">
<path d="M664 6230 c-12 -5 -31 -21 -44 -37 -18 -23 -21 -36 -16 -77 8 -70 38
-125 113 -206 36 -39 63 -73 60 -76 -4 -5 -80 32 -137 66 -59 35 -160 64 -226
65 -82 0 -116 -14 -144 -61 -24 -38 -25 -66 -5 -125 24 -69 97 -138 178 -169
21 -8 39 -19 38 -25 0 -5 -28 -15 -63 -22 -83 -17 -117 -31 -150 -61 -24 -22
-28 -33 -28 -84 0 -50 4 -62 29 -90 l29 -33 158 0 157 0 31 -31 c17 -17 49
-50 70 -72 22 -22 68 -55 102 -72 57 -28 65 -35 76 -73 23 -82 96 -119 199
-103 35 6 43 3 67 -22 34 -36 135 -118 153 -124 10 -3 2 -23 -27 -69 -43 -67
-139 -223 -154 -249 -24 -44 -80 -219 -80 -251 0 -14 -12 -59 -26 -100 -35
-99 -60 -295 -74 -574 -12 -232 -11 -263 21 -425 6 -30 15 -84 19 -120 4 -36
13 -78 19 -93 6 -16 11 -45 11 -66 0 -43 33 -179 57 -231 24 -56 83 -172 91
-184 5 -6 16 -31 27 -56 10 -25 26 -63 36 -86 11 -22 19 -43 19 -47 0 -4 11
-24 23 -45 13 -20 41 -70 62 -111 21 -41 64 -109 96 -152 65 -87 349 -374 416
-421 25 -16 48 -40 53 -52 5 -14 20 -25 38 -29 29 -6 250 -148 265 -170 10
-17 1 -206 -12 -240 -6 -16 -11 -39 -11 -52 0 -13 -14 -48 -30 -77 -17 -29
-34 -59 -38 -67 -10 -18 -103 -68 -144 -76 -18 -4 -37 -11 -43 -15 -11 -9
-102 -24 -250 -41 -148 -17 -212 -35 -284 -83 -36 -23 -87 -50 -113 -60 -58
-21 -156 -100 -164 -132 -9 -34 3 -74 24 -81 9 -3 25 -13 36 -22 14 -13 44
-16 150 -16 94 -1 138 -5 156 -15 17 -10 68 -15 165 -18 119 -3 154 -1 230 18
87 21 131 36 186 66 16 8 49 12 85 10 54 -2 94 -8 275 -38 104 -17 192 0 244
48 36 33 37 36 33 88 -6 72 -52 142 -137 211 -94 75 -141 123 -141 144 0 33
30 92 88 171 31 43 62 86 68 96 10 17 13 17 65 1 69 -22 407 -97 436 -97 12 0
48 -7 80 -15 67 -18 328 -21 383 -5 45 13 195 39 290 50 41 5 89 14 107 20 58
21 83 10 130 -55 60 -83 83 -129 83 -164 0 -25 -12 -40 -72 -91 -166 -140
-198 -186 -198 -281 0 -65 19 -89 90 -114 73 -26 126 -24 340 16 115 22 133
22 195 -1 198 -74 190 -73 367 -78 142 -4 174 -2 220 14 40 14 78 18 162 16
101 -2 112 0 152 23 73 43 81 77 32 128 -50 50 -98 83 -153 102 -27 10 -66 31
-86 47 -20 15 -40 28 -45 28 -4 0 -15 6 -23 13 -20 17 -141 44 -256 58 -233
27 -248 31 -359 89 -42 21 -55 35 -88 97 -26 49 -40 91 -44 130 -3 32 -10 70
-16 85 -14 37 1 58 64 91 29 15 60 32 68 36 8 5 35 17 60 27 46 18 83 42 245
159 50 35 122 83 160 107 39 23 84 53 100 68 17 14 46 38 65 52 72 52 240 229
300 317 14 19 35 47 48 61 12 14 22 28 22 32 0 7 35 57 83 118 19 24 178 344
177 357 0 6 8 26 17 45 29 59 33 67 52 125 27 85 39 146 51 258 6 55 14 123
20 150 17 91 32 403 25 514 l-7 109 33 7 c52 10 120 36 161 62 21 13 40 23 44
23 3 0 24 -13 47 -30 65 -46 181 -61 222 -30 6 5 60 10 121 12 102 3 115 6
176 36 l65 33 34 -23 c19 -13 60 -42 91 -65 97 -73 195 -72 272 2 39 37 46 50
46 82 0 31 -8 47 -48 90 -26 29 -71 68 -100 88 -30 19 -48 37 -40 39 7 2 55
11 107 21 92 17 140 38 188 84 46 43 42 104 -12 173 -48 63 -87 73 -265 64
-88 -5 -140 -4 -140 2 0 5 24 29 53 53 104 86 146 158 132 232 -5 28 -15 38
-49 56 -54 26 -106 27 -191 0 -79 -24 -141 -61 -247 -143 -132 -104 -206 -156
-223 -156 -8 0 -28 21 -43 47 -39 69 -121 153 -167 174 -107 47 -211 29 -240
-43 -22 -56 -18 -106 13 -163 22 -39 40 -56 92 -85 69 -39 103 -84 98 -130 -2
-20 -12 -28 -44 -38 -41 -13 -74 -52 -74 -89 0 -31 -21 -43 -75 -43 -71 0
-124 38 -149 106 -9 27 -24 64 -32 82 -8 18 -14 38 -14 45 0 7 -21 48 -46 92
-25 44 -56 111 -69 149 -14 38 -34 83 -45 100 -11 17 -30 51 -43 76 -13 25
-38 71 -57 103 -19 32 -39 66 -45 75 -57 98 -227 286 -350 388 l-49 40 3 58
c4 110 -29 224 -85 293 -45 55 -86 79 -161 94 -55 11 -67 11 -98 -4 -19 -9
-41 -28 -47 -43 -15 -32 -5 -50 75 -133 63 -67 75 -95 25 -59 -41 28 -56 37
-221 119 -72 37 -143 70 -157 74 -14 4 -29 11 -35 15 -5 4 -24 11 -42 15 -18
3 -42 14 -55 24 -13 10 -39 21 -58 24 -19 4 -64 16 -100 26 -161 48 -411 84
-610 87 -91 1 -167 2 -170 3 -14 4 69 40 93 41 45 0 87 27 87 54 0 31 -88 103
-136 112 -45 8 -154 0 -162 -12 -4 -5 -19 -15 -33 -22 -22 -12 -85 -72 -162
-154 -26 -28 -65 -41 -212 -73 -44 -10 -96 -23 -115 -31 -166 -62 -226 -88
-293 -128 -43 -25 -81 -46 -86 -46 -11 0 -132 -73 -191 -115 -25 -18 -76 -49
-115 -70 -124 -67 -171 -104 -309 -241 -145 -143 -157 -150 -216 -119 -31 16
-33 21 -30 69 3 45 -28 91 -78 115 -42 21 -43 22 -29 45 9 12 17 36 19 52 4
37 28 43 140 36 146 -9 228 40 228 134 0 121 -92 194 -244 194 -56 0 -147 -29
-177 -56 -8 -8 -21 -14 -27 -14 -14 0 -116 123 -193 235 -86 124 -197 232
-279 271 -77 38 -108 45 -136 34z m115 -114 c65 -40 192 -167 247 -246 59 -87
206 -250 229 -256 12 -3 43 7 76 24 74 39 168 50 230 26 86 -32 114 -95 60
-133 -26 -18 -41 -20 -152 -18 -114 2 -126 0 -155 -20 -25 -18 -33 -33 -38
-68 -6 -37 -17 -56 -61 -101 -53 -53 -60 -76 -29 -88 8 -3 26 -1 40 4 34 13
77 13 109 -2 52 -24 26 -78 -71 -145 -40 -28 -141 -53 -213 -53 -49 0 -61 4
-82 26 -24 25 -24 26 -5 40 11 8 26 14 33 14 7 0 16 12 19 27 10 37 -18 56
-68 48 -82 -14 -117 2 -251 118 l-44 37 -158 9 c-86 5 -161 13 -167 19 -5 5
-8 24 -6 42 3 32 6 34 68 52 36 10 108 21 160 25 89 6 96 8 122 37 33 36 33
60 -1 64 -12 2 -45 17 -72 33 -28 16 -53 29 -57 29 -19 0 -119 59 -154 90 -31
28 -39 43 -41 74 -2 33 2 42 24 55 23 13 34 13 100 -3 41 -10 128 -44 195 -77
70 -34 135 -59 153 -59 19 0 34 -6 37 -15 8 -20 30 -19 81 6 34 16 43 26 43
46 0 22 -3 25 -27 20 -61 -12 -68 -12 -69 3 0 8 -2 22 -2 31 -1 8 -42 61 -90
116 -58 66 -93 116 -101 142 -21 72 2 79 88 27z m2816 -276 c66 -6 138 -15
160 -20 22 -5 57 -10 78 -10 20 0 37 -4 37 -10 0 -5 -17 -17 -37 -26 -73 -32
-123 -59 -123 -66 0 -5 -6 -8 -14 -8 -7 0 -26 -10 -41 -22 -34 -27 -122 -31
-151 -8 -31 27 -84 118 -84 148 0 35 8 45 35 38 11 -3 75 -10 140 -16z m-251
4 c9 -3 16 -16 16 -28 0 -27 37 -101 74 -150 34 -43 105 -81 139 -73 76 19
102 30 193 86 56 33 110 61 120 61 9 0 26 8 37 18 26 23 126 20 187 -6 l44
-19 -3 -80 c-3 -89 9 -130 57 -191 16 -21 37 -51 46 -69 10 -21 45 -51 94 -82
104 -67 112 -83 112 -218 l0 -109 36 -35 c20 -18 47 -51 61 -73 29 -46 28 -95
-6 -220 -27 -102 -27 -150 3 -212 24 -49 49 -149 48 -189 -2 -74 -19 -127 -67
-210 -61 -104 -83 -180 -65 -217 36 -68 89 -78 156 -29 35 25 79 51 194 112
21 12 55 19 90 19 50 0 59 -3 87 -32 16 -18 45 -55 63 -82 18 -27 66 -80 106
-119 90 -85 93 -102 30 -167 -24 -25 -54 -65 -67 -90 -13 -25 -28 -48 -34 -52
-5 -4 -18 -13 -29 -20 -10 -7 -36 -28 -58 -45 -32 -27 -49 -33 -86 -33 -46 0
-117 18 -177 46 -16 8 -61 15 -98 16 -63 2 -70 0 -87 -22 -21 -28 -35 -93 -25
-111 4 -6 7 -47 7 -90 0 -93 -9 -108 -75 -127 -56 -17 -116 -3 -166 39 -35 28
-74 37 -99 21 -22 -15 -29 -64 -25 -183 4 -114 3 -117 -22 -148 -15 -17 -33
-31 -41 -31 -8 0 -34 -10 -57 -22 -78 -39 -453 -65 -475 -31 -4 5 -15 12 -24
16 -10 3 -18 13 -18 20 0 8 -7 20 -15 27 -8 7 -15 22 -15 34 -2 67 -119 206
-175 206 -13 0 -27 5 -30 10 -3 5 -29 10 -56 10 -34 0 -67 8 -102 26 -79 39
-90 46 -139 87 -49 41 -113 77 -138 77 -9 0 -27 8 -40 17 -47 33 -239 47 -340
25 -30 -7 -84 -16 -120 -21 -36 -5 -86 -14 -112 -21 -27 -7 -57 -10 -69 -7
-26 7 -79 -12 -147 -52 -29 -17 -61 -31 -71 -31 -10 0 -35 -7 -55 -15 -41 -17
-84 -10 -260 47 -112 35 -129 35 -193 -2 -73 -42 -85 -67 -67 -150 8 -36 18
-86 23 -111 4 -28 26 -76 54 -120 26 -40 47 -76 47 -80 0 -5 -13 -44 -29 -87
-26 -72 -27 -82 -15 -112 8 -18 14 -38 14 -46 0 -37 86 -193 135 -244 65 -69
85 -107 85 -162 1 -24 5 -62 10 -85 6 -24 14 -60 18 -80 5 -21 15 -48 22 -60
8 -12 11 -26 7 -30 -12 -12 -180 163 -246 257 -33 47 -77 117 -97 155 -20 39
-42 77 -49 85 -14 17 -56 99 -133 255 -29 61 -57 118 -62 127 -22 41 -49 133
-64 219 -9 52 -21 112 -27 134 -40 162 -56 749 -24 892 3 14 18 26 42 34 21 6
57 25 81 40 24 16 45 29 48 29 16 0 121 90 190 163 64 67 83 94 88 124 24 141
30 174 42 220 8 28 14 61 14 73 0 17 58 120 80 140 3 3 16 25 29 50 13 25 30
52 37 60 7 9 22 37 34 62 12 28 49 75 92 117 l73 70 3 78 c4 66 9 85 33 121
16 24 29 47 29 51 0 5 7 14 15 21 8 7 15 19 15 28 0 34 244 223 319 247 13 4
46 20 72 36 137 80 305 146 472 183 24 6 27 3 27 -18 0 -13 -5 -26 -10 -28
-14 -4 -24 -70 -16 -102 4 -16 16 -28 30 -32 21 -5 39 9 123 95 54 55 114 107
133 115 35 15 154 22 184 10z m1167 -273 c58 -28 108 -51 111 -51 5 0 52 -26
223 -120 21 -12 34 -30 43 -61 8 -24 18 -57 24 -74 6 -16 14 -52 18 -80 9 -59
29 -117 44 -127 13 -9 48 1 58 16 4 6 8 48 8 94 0 53 4 82 11 82 12 0 43 -31
145 -145 134 -152 229 -288 284 -410 12 -28 26 -52 30 -55 13 -9 38 -65 95
-210 30 -78 65 -160 76 -182 11 -22 24 -61 29 -87 7 -39 29 -113 72 -236 5
-16 14 -49 19 -73 5 -23 14 -52 20 -65 8 -14 14 -89 17 -202 l4 -180 -34 -34
c-28 -29 -80 -66 -163 -118 -91 -57 -312 -135 -435 -153 -36 -6 -78 -15 -94
-20 -16 -6 -45 -10 -64 -10 -62 0 -121 -38 -199 -127 -73 -83 -292 -151 -385
-118 -94 32 -129 11 -192 -118 -26 -52 -55 -102 -65 -111 -28 -26 -100 -46
-211 -61 -166 -22 -222 -32 -271 -50 -42 -14 -49 -22 -79 -83 -40 -80 -50
-163 -27 -208 8 -16 19 -48 23 -69 3 -22 26 -71 48 -110 36 -59 45 -86 59
-173 15 -96 15 -107 0 -145 -19 -46 -78 -135 -102 -154 -17 -13 -22 -15 -121
-61 -87 -40 -229 -85 -310 -97 -25 -4 -64 -13 -88 -21 -23 -8 -62 -14 -86 -14
-43 0 -144 -30 -168 -49 -7 -6 -28 -23 -46 -38 -19 -14 -45 -44 -59 -66 -21
-33 -29 -38 -51 -34 -99 19 -418 156 -507 217 -22 15 -102 69 -177 121 -128
88 -188 146 -188 183 0 7 -14 52 -30 99 -17 48 -30 97 -30 110 0 48 -39 199
-57 220 -10 12 -22 27 -28 35 -5 8 -29 35 -52 61 -24 27 -43 51 -43 55 0 4
-16 41 -35 82 -39 83 -45 147 -20 207 26 63 20 109 -26 184 -30 49 -43 84 -50
131 -5 35 -14 72 -19 82 -39 72 35 132 135 109 27 -6 60 -17 72 -25 12 -8 35
-14 51 -14 16 0 49 -7 72 -15 54 -19 117 -19 154 0 15 8 39 15 52 15 13 0 47
14 76 32 36 22 72 34 113 39 33 4 89 14 125 22 36 8 120 25 188 38 106 19 130
21 168 11 24 -7 63 -12 87 -12 26 0 51 -8 67 -20 14 -11 31 -20 39 -20 27 0
99 -41 144 -80 25 -22 49 -40 55 -40 5 0 15 -7 22 -15 7 -8 19 -15 28 -15 8 0
23 -7 32 -15 10 -9 44 -17 80 -20 35 -3 69 -10 74 -15 6 -6 22 -10 38 -10 21
0 37 -11 66 -49 21 -26 44 -64 51 -82 7 -19 30 -68 51 -109 28 -56 43 -74 56
-73 11 1 42 -2 69 -7 80 -15 378 10 435 37 25 11 62 29 83 38 21 10 49 34 63
54 22 33 24 44 24 168 0 118 2 133 17 133 9 0 28 -11 42 -23 34 -31 115 -60
149 -54 55 10 126 43 144 67 15 21 19 47 21 160 2 124 4 135 21 138 21 4 120
-21 174 -44 20 -8 67 -14 120 -14 l87 0 73 63 c41 34 84 79 96 100 13 20 34
50 47 65 73 83 79 93 79 136 0 39 -5 47 -75 117 -42 40 -95 101 -118 134 -60
84 -109 133 -142 141 -48 12 -154 -11 -201 -44 -23 -17 -52 -33 -65 -37 -13
-4 -51 -25 -83 -46 -32 -21 -63 -36 -69 -32 -5 3 -7 29 -5 57 3 40 15 68 49
121 66 103 80 143 73 217 -7 90 -24 167 -48 213 -25 51 -24 137 4 224 24 75
26 174 5 214 -8 15 -34 51 -58 80 l-44 52 -6 119 c-5 117 -6 119 -39 153 -18
19 -60 52 -92 74 -33 21 -69 54 -80 73 -12 19 -34 51 -51 72 -25 31 -30 48
-33 105 -6 104 -7 103 95 54 48 -23 136 -66 194 -94z m-2581 -275 c0 -8 -5
-18 -11 -21 -5 -4 -15 -17 -20 -28 -5 -12 -16 -33 -24 -47 -8 -14 -15 -51 -15
-84 0 -55 -2 -61 -37 -93 -77 -70 -103 -97 -109 -117 -9 -27 -104 -186 -154
-256 -26 -37 -44 -78 -55 -125 -9 -38 -21 -90 -27 -115 -6 -25 -14 -70 -17
-100 -8 -67 -17 -81 -116 -173 -72 -68 -235 -177 -262 -177 -21 0 -15 55 16
132 15 40 32 99 35 130 4 32 12 60 17 63 5 4 9 17 9 29 0 42 53 156 101 216
16 19 41 60 57 90 16 30 64 111 108 180 81 130 149 204 379 417 98 91 125 108
125 79z m-493 -242 c24 -10 43 -24 43 -31 0 -7 -18 -31 -40 -55 -22 -24 -40
-47 -40 -53 -1 -14 -36 -55 -48 -55 -16 0 -122 93 -122 107 0 8 11 18 26 23
14 6 48 28 77 50 29 22 54 38 57 37 3 -2 24 -12 47 -23z m5592 -388 c25 -30
-38 -109 -162 -204 -54 -42 -57 -43 -91 -31 -56 20 -61 3 -23 -74 19 -36 40
-73 47 -82 20 -24 40 -18 46 14 l6 29 177 7 c115 4 185 3 203 -4 34 -13 61
-62 52 -96 -11 -43 -52 -62 -166 -79 -138 -21 -203 -20 -239 1 -43 25 -65 9
-62 -46 4 -67 18 -84 62 -76 32 5 48 0 112 -35 76 -43 159 -121 159 -151 0
-55 -107 -73 -171 -29 -144 100 -149 103 -198 97 -25 -3 -71 -13 -101 -22 -75
-21 -166 -30 -193 -18 -12 5 -52 25 -89 43 -56 28 -69 32 -82 21 -23 -19 -20
-44 9 -71 46 -44 21 -54 -50 -20 -71 35 -175 166 -175 223 0 83 47 102 92 37
36 -52 68 -55 68 -7 0 18 -7 42 -15 53 -8 10 -15 35 -15 55 -1 95 -12 131 -54
172 -23 22 -63 49 -91 62 -27 12 -56 29 -63 37 -13 16 -21 103 -10 114 4 3 36
9 71 11 47 4 71 1 94 -11 36 -18 92 -83 121 -141 39 -78 104 -110 149 -74 10
8 38 30 63 49 25 20 88 70 140 111 89 71 126 94 210 132 46 20 153 22 169 3z
m-962 -722 c23 -32 42 -64 42 -70 1 -11 -146 -64 -178 -64 -10 0 -23 6 -29 13
-13 16 -47 155 -40 163 6 6 136 23 153 19 5 -1 28 -28 52 -61z m-237 -662 c0
-9 -5 -33 -10 -52 -12 -38 -24 -122 -45 -305 -8 -66 -19 -140 -25 -164 -18
-73 -76 -234 -100 -276 -13 -22 -47 -87 -78 -145 -49 -93 -157 -249 -259 -373
-19 -23 -88 -97 -154 -163 -103 -105 -125 -122 -159 -128 -32 -5 -45 -14 -64
-45 -17 -26 -56 -59 -116 -97 -50 -33 -117 -78 -149 -100 -32 -23 -77 -52
-102 -64 -24 -13 -51 -27 -59 -32 -8 -4 -26 -14 -40 -20 -14 -7 -27 -15 -30
-19 -10 -13 -87 -46 -145 -62 -231 -65 -345 -92 -465 -112 -172 -28 -200 -34
-222 -47 -37 -21 -423 -18 -513 4 -122 30 -209 48 -232 48 -55 0 -34 54 41
104 35 23 68 36 106 40 30 4 73 11 95 16 156 36 221 53 230 60 6 4 30 10 55
13 25 3 68 17 95 30 28 14 85 41 127 61 85 40 145 102 178 186 6 14 15 33 20
42 16 28 11 157 -9 233 -10 39 -37 100 -59 138 -26 41 -42 80 -42 100 0 17 -7
41 -15 51 -27 35 -19 105 17 160 30 45 39 51 98 67 36 10 108 20 160 24 155
11 268 51 320 113 15 19 38 60 51 93 24 61 60 109 82 109 7 0 25 -7 41 -15 36
-19 68 -19 130 0 27 8 67 15 88 15 28 0 52 10 88 35 27 19 57 35 65 35 8 0 15
5 15 10 0 6 4 10 10 10 5 0 39 29 74 64 57 56 72 65 130 80 36 9 78 16 94 16
16 0 49 7 72 15 23 8 54 15 69 15 77 0 389 137 475 209 53 45 66 50 66 23z
m-3485 -2076 c99 -47 119 -55 145 -58 43 -5 35 -34 -32 -111 -35 -39 -66 -74
-69 -77 -21 -17 -49 -95 -49 -138 0 -41 5 -55 35 -90 20 -23 73 -71 119 -107
86 -69 133 -136 121 -174 -10 -31 -57 -44 -132 -37 -38 4 -106 9 -153 12 -49
4 -94 12 -107 21 -31 21 -112 11 -213 -24 -184 -64 -339 -77 -508 -43 -88 17
-113 18 -170 9 -109 -18 -156 15 -91 64 15 10 49 21 75 24 38 4 58 13 89 42
22 20 51 42 64 50 28 16 119 36 206 45 260 28 391 73 476 163 81 84 101 126
116 238 8 57 11 127 7 164 -4 35 -3 62 2 60 5 -3 36 -17 69 -33z m1942 -78 c6
-7 13 -51 16 -98 7 -103 28 -155 92 -230 101 -118 171 -143 544 -196 113 -16
130 -21 182 -56 31 -21 60 -45 63 -53 4 -10 20 -15 49 -15 31 0 57 -9 90 -30
26 -16 47 -34 47 -40 0 -22 -54 -31 -150 -24 -76 5 -108 3 -155 -11 -129 -37
-325 -20 -495 43 -87 32 -198 46 -225 28 -24 -15 -156 -30 -278 -31 -75 0 -91
3 -102 18 -8 11 -11 26 -8 35 19 62 36 82 140 169 63 52 118 106 124 119 28
75 -2 163 -86 256 -47 52 -52 71 -19 76 10 2 28 7 39 12 19 8 102 36 116 39 4
0 11 -5 16 -11z"/>
<path d="M2665 5149 c-22 -4 -57 -11 -78 -14 -46 -7 -57 -29 -29 -57 18 -18
36 -22 124 -25 90 -4 111 -8 164 -34 80 -40 118 -37 122 8 4 42 -51 105 -106
121 -44 13 -137 14 -197 1z"/>
<path d="M2921 4850 c-32 -8 -44 -12 -121 -49 -42 -19 -92 -70 -128 -131 -25
-42 -27 -53 -27 -155 0 -101 2 -114 27 -157 36 -63 56 -86 100 -114 69 -44
156 -68 244 -68 129 2 191 33 163 85 -9 18 -17 20 -47 14 -96 -17 -147 -17
-206 1 -140 41 -204 117 -204 244 -1 114 62 202 173 241 51 18 73 20 144 14
87 -7 115 -17 188 -66 50 -35 83 -38 83 -9 0 37 -46 74 -170 135 -31 15 -174
25 -219 15z"/>
<path d="M1963 4666 c-78 -21 -106 -78 -57 -119 26 -23 54 -110 54 -172 0 -17
6 -39 13 -50 8 -11 17 -35 20 -53 8 -41 114 -254 164 -330 149 -224 461 -435
719 -485 196 -39 330 -49 542 -43 261 7 333 17 489 67 36 12 95 21 143 22 71
2 86 0 112 -20 24 -17 35 -20 49 -12 64 34 -5 203 -106 257 -22 12 -124 4
-142 -11 -19 -14 -16 -41 7 -70 11 -14 20 -29 20 -34 0 -15 -117 -73 -147 -73
-16 0 -52 -7 -79 -16 -62 -20 -512 -32 -619 -15 -242 36 -350 58 -380 76 -11
7 -31 15 -45 18 -44 11 -206 113 -302 191 -111 90 -201 194 -253 291 -21 39
-44 77 -51 86 -8 8 -14 22 -14 30 0 8 -6 23 -14 34 -27 40 -76 221 -76 283 0
33 5 40 36 57 48 26 60 50 39 81 -17 27 -49 30 -122 10z"/>
<path d="M4072 4634 c-27 -19 -28 -55 -2 -79 11 -10 53 -24 92 -32 72 -13 74
-14 151 -94 77 -80 96 -88 99 -43 2 27 -74 163 -110 198 -19 18 -55 35 -99 47
-84 23 -102 23 -131 3z"/>
</g>
</svg>
