<?xml version="1.0" standalone="no"?>
<!DOCTYPE svg PUBLIC "-//W3C//DTD SVG 20010904//EN"
 "http://www.w3.org/TR/2001/REC-SVG-20010904/DTD/svg10.dtd">
<svg version="1.0" xmlns="http://www.w3.org/2000/svg"
 width="600.000000pt" height="664.000000pt" viewBox="0 0 600.000000 664.000000"
 preserveAspectRatio="xMidYMid meet">
<metadata>
Created by potrace 1.16, written by Peter Selinger 2001-2019
</metadata>
<g transform="translate(0.000000,664.000000) scale(0.100000,-0.100000)"
fill="#FFFFFF" stroke="none">
<path d="M2522 6625 c-7 -8 -25 -15 -40 -15 -49 0 -324 -69 -462 -116 -613
-207 -1132 -594 -1515 -1129 -119 -165 -274 -464 -348 -670 -45 -124 -92 -291
-117 -415 -10 -52 -23 -96 -29 -98 -8 -3 -11 -142 -11 -459 0 -373 2 -457 14
-468 7 -8 17 -36 21 -62 22 -147 114 -447 192 -620 223 -502 560 -910 1021
-1236 53 -38 121 -83 150 -100 29 -18 61 -37 70 -42 295 -176 646 -300 1062
-377 115 -21 153 -23 470 -23 316 0 356 2 475 23 72 13 153 29 180 37 28 7 88
23 135 35 79 20 195 57 315 100 112 40 399 179 459 223 6 4 54 35 106 68 208
134 315 222 507 417 123 125 243 269 331 398 52 76 142 222 142 229 0 3 11 22
23 43 39 62 143 299 187 427 44 129 95 324 106 406 4 28 13 56 20 64 21 20 21
900 0 920 -7 8 -17 36 -21 62 -3 26 -22 107 -40 180 -101 397 -287 767 -552
1098 -116 145 -322 352 -453 453 -58 45 -110 86 -115 90 -31 25 -228 153 -275
179 -130 72 -209 113 -270 138 -36 15 -84 36 -107 46 -23 10 -48 19 -55 19 -8
0 -18 4 -23 9 -8 7 -103 39 -240 81 -60 18 -241 60 -300 68 -32 6 -61 15 -63
21 -3 8 -135 11 -470 11 -397 -1 -469 -3 -480 -15z m733 -125 c213 -21 355
-47 543 -95 103 -27 287 -91 305 -106 5 -4 -7 -19 -27 -34 -73 -56 -91 -139
-60 -285 36 -176 156 -260 371 -260 l96 0 41 -46 c78 -87 173 -110 238 -56 44
36 64 60 83 100 22 44 8 86 -43 129 -29 25 -34 34 -25 44 10 9 18 10 37 1 32
-14 196 -160 196 -174 0 -6 -11 -24 -25 -42 -64 -78 -108 -140 -121 -171 -43
-104 15 -190 225 -330 120 -80 188 -145 225 -215 33 -63 93 -130 116 -130 8 0
21 -4 29 -9 13 -8 12 -15 -3 -50 -50 -110 64 -183 180 -115 24 14 50 24 58 21
8 -3 24 -35 36 -71 l22 -66 -21 -34 c-25 -39 -28 -113 -6 -142 8 -10 15 -28
15 -39 0 -19 -7 -20 -182 -20 -160 -1 -190 -3 -239 -21 -70 -27 -181 -99 -241
-158 -39 -39 -49 -57 -67 -123 -11 -42 -26 -82 -33 -88 -7 -7 -53 -21 -103
-33 -143 -35 -209 -86 -226 -176 -11 -60 19 -203 59 -283 45 -89 141 -216 252
-338 56 -60 121 -139 145 -175 41 -60 46 -73 60 -175 9 -60 18 -162 21 -225 7
-158 11 -176 45 -215 40 -45 76 -52 135 -26 26 12 50 19 53 16 12 -13 -84
-153 -198 -286 -80 -94 -254 -264 -346 -339 -44 -35 -82 -67 -85 -71 -10 -13
-256 -175 -325 -214 -108 -61 -101 -61 -184 -18 -94 48 -158 51 -241 12 -216
-104 -256 -114 -450 -113 -188 1 -213 9 -322 111 -135 125 -228 157 -478 167
-197 8 -371 31 -480 62 -126 35 -219 47 -380 48 -142 0 -148 0 -259 -37 -116
-39 -194 -74 -243 -110 l-27 -20 -55 38 c-31 21 -93 67 -138 104 -75 59 -108
88 -229 202 -20 19 -67 67 -105 108 l-68 74 23 18 c13 11 29 19 36 19 7 0 31
21 54 46 30 34 43 60 51 102 7 31 20 84 30 117 32 108 33 160 6 271 -50 202
-47 335 8 407 47 62 74 72 196 73 58 0 123 6 145 12 132 38 238 172 280 355
13 60 16 103 12 190 -5 112 -17 159 -67 256 -30 60 -129 154 -195 186 -52 25
-74 29 -171 33 -142 5 -194 -6 -321 -70 -94 -47 -107 -51 -175 -51 -41 0 -99
8 -132 18 -106 31 -208 6 -299 -75 -50 -44 -97 -123 -97 -162 0 -13 -4 -29 -9
-37 -18 -29 -23 15 -17 148 18 331 71 580 192 886 80 203 121 278 161 290 18
5 65 35 105 67 81 65 212 134 273 144 l40 6 -46 -48 c-58 -60 -69 -82 -69
-131 0 -113 140 -183 339 -171 102 7 183 39 237 94 54 56 84 158 84 286 0 72
3 90 23 119 20 30 29 35 82 41 86 11 141 35 171 74 52 68 51 157 -2 236 -34
49 -69 62 -144 53 -51 -6 -60 -5 -60 9 0 22 28 34 119 51 84 16 129 32 196 67
55 29 73 46 107 97 35 56 39 142 8 210 -11 24 -20 49 -20 57 0 41 383 150 650
184 52 7 122 16 155 20 87 11 385 11 490 0z m-1359 -282 c11 -22 15 -48 12
-85 -8 -97 -73 -140 -287 -189 -134 -30 -153 -47 -159 -137 -4 -56 -1 -67 20
-92 l25 -28 70 17 c86 21 107 14 123 -45 13 -48 8 -68 -24 -99 -20 -18 -41
-23 -110 -29 -46 -3 -87 -9 -89 -11 -2 -3 -22 -30 -43 -60 l-38 -55 -7 -130
c-4 -82 -13 -143 -22 -166 -39 -88 -137 -128 -287 -115 -86 7 -125 18 -152 43
-33 29 -22 61 41 121 83 80 91 135 25 178 -23 16 -33 16 -87 5 -75 -15 -183
-60 -244 -101 -77 -52 -81 -42 -16 49 199 280 436 517 703 701 132 90 206 134
368 217 136 69 148 70 178 11z m2438 -39 c126 -44 352 -171 364 -207 2 -6 -10
-20 -27 -29 -24 -14 -31 -25 -31 -50 0 -28 8 -38 60 -75 68 -48 74 -67 33
-110 -44 -46 -103 -34 -149 31 -43 60 -71 70 -209 74 -96 3 -128 8 -160 25
-79 40 -112 101 -122 224 -7 90 7 122 60 137 54 16 86 12 181 -20z m859 -646
c111 -130 194 -241 267 -358 33 -53 60 -98 60 -100 0 -2 17 -34 39 -72 21 -37
41 -80 45 -94 l6 -26 -82 19 c-76 17 -118 39 -118 60 0 5 -18 37 -41 73 -46
73 -113 133 -249 224 -184 124 -214 176 -149 257 17 22 42 56 55 77 19 29 31
37 54 37 24 0 42 -15 113 -97z m625 -1341 c-1 -28 5 -63 14 -83 24 -50 39
-213 37 -391 -3 -218 -8 -230 -148 -363 -29 -27 -62 -67 -73 -88 -33 -66 -57
-182 -68 -331 -14 -201 -41 -321 -99 -434 -26 -51 -97 -129 -134 -149 -49 -25
-62 0 -70 139 -13 213 -34 352 -61 405 -35 66 -96 145 -195 249 -138 146 -222
270 -259 385 -28 88 -35 151 -21 183 16 33 89 69 194 92 95 21 139 56 150 120
18 112 74 180 199 243 89 45 156 54 343 48 133 -5 164 -3 174 9 18 21 19 18
17 -34z m-4458 -221 c89 -47 165 -155 189 -269 35 -169 -14 -388 -109 -482
-63 -63 -128 -85 -225 -76 -41 4 -93 2 -119 -4 -92 -20 -178 -112 -206 -220
-20 -74 -1 -264 41 -413 12 -44 11 -56 -20 -185 -19 -75 -40 -149 -47 -163
-18 -36 -98 -78 -121 -63 -24 15 -98 117 -177 244 -185 297 -314 644 -370 995
-25 157 -29 231 -14 244 7 6 27 22 45 36 25 20 34 38 43 83 17 85 19 90 53
129 64 73 181 103 265 67 20 -8 66 -18 102 -21 76 -6 154 16 259 74 83 45 122
52 256 49 93 -2 117 -6 155 -25z m4470 -673 c0 -48 -85 -369 -125 -473 -13
-33 -26 -70 -30 -82 -13 -45 -26 -23 -21 35 3 31 8 91 11 132 9 118 33 255 52
297 20 44 92 125 105 117 4 -3 8 -14 8 -26z m-3545 -1787 c109 -34 170 -42
495 -66 287 -22 310 -30 457 -166 77 -72 117 -90 233 -109 195 -30 385 7 604
117 56 28 125 28 154 -1 22 -22 13 -28 -93 -71 -215 -87 -422 -145 -665 -186
-122 -21 -167 -23 -460 -24 -262 0 -340 4 -405 17 -44 9 -102 19 -130 23 -109
15 -322 74 -490 136 -104 38 -428 193 -469 224 -40 30 -14 48 159 111 l90 33
210 -3 c202 -4 214 -5 310 -35z"/>
<path d="M2122 5769 c-99 -29 -202 -130 -221 -218 -19 -90 6 -104 83 -45 91
69 237 114 321 98 26 -5 38 -1 55 16 39 39 8 119 -55 146 -38 16 -133 17 -183
3z"/>
<path d="M3703 5761 c-60 -38 -85 -129 -42 -152 12 -6 33 -9 48 -6 42 9 168
-11 219 -33 25 -11 70 -39 99 -60 78 -59 102 -53 93 25 -4 35 -49 113 -87 150
-63 61 -126 88 -218 92 -67 4 -85 1 -112 -16z"/>
<path d="M2165 5129 c-27 -4 -79 -20 -114 -34 -36 -14 -71 -25 -78 -25 -7 0
-28 14 -47 31 -69 60 -123 20 -75 -57 31 -51 13 -66 -39 -31 -42 30 -62 33
-80 15 -20 -20 -14 -44 22 -87 32 -38 34 -46 29 -89 -4 -37 -1 -52 14 -71 28
-34 47 -23 82 46 52 104 199 183 373 199 63 6 72 5 134 -27 l66 -34 19 24 c37
45 -5 117 -80 140 -43 13 -152 13 -226 0z"/>
<path d="M3628 5129 c-44 -13 -98 -69 -98 -102 0 -50 51 -62 103 -25 111 79
454 -39 508 -176 18 -46 37 -65 60 -59 29 8 42 40 35 87 -6 37 -3 47 24 81 34
42 40 92 13 102 -9 4 -37 -5 -65 -21 -40 -23 -49 -25 -54 -12 -3 8 4 29 15 45
35 49 24 81 -28 81 -10 0 -26 -9 -37 -21 -41 -45 -53 -45 -194 6 -54 20 -231
28 -282 14z"/>
<path d="M1568 4540 c-14 -11 -58 -61 -97 -112 -39 -51 -89 -117 -112 -145
-31 -39 -40 -58 -36 -75 12 -45 171 -142 324 -198 72 -26 81 -35 110 -110 47
-119 65 -218 70 -385 6 -178 -14 -339 -62 -508 -16 -53 -23 -97 -19 -113 14
-56 180 -206 289 -261 103 -53 266 -105 423 -136 96 -19 139 -21 437 -21 292
0 344 2 450 21 331 59 530 149 696 313 118 118 209 277 249 440 6 25 15 59 20
75 21 70 49 345 55 535 3 112 10 210 16 216 5 6 31 19 57 29 74 28 207 102
277 156 75 57 98 61 116 20 7 -17 24 -34 36 -40 19 -9 25 -7 39 14 15 23 15
30 -1 97 -15 64 -24 79 -66 120 -53 52 -90 66 -194 74 -74 6 -121 -5 -131 -31
-9 -21 -4 -24 60 -41 65 -17 126 -50 126 -69 0 -30 -149 -129 -275 -182 -33
-14 -73 -31 -90 -39 -121 -55 -507 -146 -765 -180 -438 -58 -658 -66 -1020
-39 -188 14 -432 45 -515 64 -22 5 -67 15 -100 21 -217 42 -475 149 -475 197
0 8 24 56 53 106 86 150 103 185 91 197 -7 7 -18 5 -36 -10z m2680 -605 c2
-50 -2 -164 -8 -255 -9 -130 -14 -168 -27 -177 -18 -14 -107 -47 -223 -84 -90
-29 -99 -49 -27 -63 33 -7 76 -6 133 2 47 7 89 10 95 6 12 -7 6 -42 -27 -142
-83 -258 -261 -437 -525 -530 -342 -121 -908 -147 -1284 -61 -105 24 -245 78
-326 125 -79 46 -169 130 -169 158 0 11 11 72 25 134 14 62 31 156 38 210 l12
97 80 6 c78 7 126 19 152 41 24 19 -10 35 -102 47 -129 18 -135 23 -135 118 0
67 -33 234 -61 309 -27 72 -19 81 53 61 73 -21 348 -62 558 -83 208 -21 603
-24 760 -6 58 7 161 19 230 27 272 32 610 99 721 144 49 20 54 13 57 -84z"/>
</g>
</svg>
